<?xml version="1.0" standalone="no"?><!DOCTYPE svg PUBLIC "-//W3C//DTD SVG 1.1//EN" "http://www.w3.org/Graphics/SVG/1.1/DTD/svg11.dtd"><svg class="icon" height="512" viewBox="0 0 1024 1024" version="1.1" xmlns="http://www.w3.org/2000/svg"><path d="M800 128 224 128c-53.02 0-96 42.98-96 96l0 32 768 0 0-32C896 170.98 853.02 128 800 128zM632.32 64l14.116 101L377.564 165l14.114-101L632.32 64M640 0 384 0c-26.4 0-50.99 21.392-54.642 47.538l-18.714 133.924C306.99 207.608 325.6 229 352 229l320 0c26.4 0 45.01-21.392 41.358-47.538l-18.714-133.924C690.99 21.392 666.4 0 640 0L640 0zM816 320 208 320c-35.2 0-61.392 28.682-58.206 63.738l52.412 576.526C205.392 995.318 236.8 1024 272 1024l480 0c35.2 0 66.608-28.682 69.794-63.736l52.41-576.526C877.392 348.682 851.2 320 816 320zM384 896l-96 0-32-448 128 0L384 896zM576 896l-128 0L448 448l128 0L576 896zM736 896l-96 0L640 448l128 0L736 896z" /></svg>